<svg width="162" height="50" viewBox="0 0 162 50" fill="none" xmlns="http://www.w3.org/2000/svg">
<g clip-path="url(#clip0_66_28522)">
<path d="M18.3817 17.3379C21.7665 18.4866 25.071 19.7433 28.3085 21.0947C31.5461 19.7433 34.8506 18.4866 38.222 17.3379C41.4462 18.8785 44.6035 20.5271 47.6672 22.2433C47.8812 20.3379 48.0953 18.4325 48.3094 16.5271C45.152 14.6758 41.9011 12.9055 38.5565 11.2433C35.0647 12.5136 31.6398 13.8785 28.2952 15.3515C24.9505 13.8785 21.5257 12.5136 18.0339 11.2433C14.6893 12.919 11.4383 14.6758 8.26758 16.5406C8.49501 18.446 8.73582 20.3515 8.96325 22.2569C12.0135 20.5271 15.1575 18.892 18.3817 17.3515" fill="white"/>
<path d="M28.3089 6.87843C31.8007 8.22978 35.2256 9.68924 38.5702 11.2433C38.6773 9.32438 38.7843 7.40546 38.8913 5.48654C35.453 3.81086 31.9211 2.22978 28.3089 0.770325C24.6968 2.2433 21.1648 3.81086 17.7266 5.48654C17.8336 7.40546 17.9406 9.32438 18.0476 11.2433C21.3923 9.68924 24.8172 8.22978 28.3089 6.89195V6.87843Z" fill="white"/>
<path d="M19.1716 31.527C16.2016 33.1757 13.3252 34.9054 10.5425 36.7162L11.2248 42.4324C13.9005 40.7568 16.6698 39.1487 19.5061 37.6216C21.4459 38.3784 23.3457 39.1892 25.2187 40.027V49.6892H31.3326V40.0406C33.219 39.2027 35.1321 38.3919 37.072 37.6216C37.9817 38.1081 38.8915 38.6081 39.7878 39.1081C41.6876 40.1757 43.5606 41.2838 45.3934 42.4324C45.6075 40.527 45.8215 38.6216 46.0356 36.7162C43.2529 34.9054 40.3765 33.1757 37.4199 31.527C34.3027 32.8108 31.2524 34.1892 28.2957 35.6622C25.3391 34.1892 22.2888 32.8108 19.1582 31.527" fill="white"/>
<path d="M47.6541 22.2433C44.2694 23.3243 40.9649 24.5 37.7407 25.7838C34.677 24.1351 31.5197 22.5676 28.2821 21.0946C25.0445 22.5676 21.9006 24.1216 18.8369 25.7838C15.5993 24.5 12.2814 23.3243 8.89669 22.2433C5.8464 24.0811 2.87637 26.0135 0 28.027C0.334462 29.9189 0.668924 31.7973 1.00339 33.6892C3.77273 31.8243 6.63573 30.027 9.56561 28.3243C12.83 29.2973 16.0274 30.3649 19.1446 31.5406C22.1146 30.0135 25.1515 28.5676 28.2687 27.2162C31.3859 28.5676 34.4362 30.0135 37.4062 31.5406C40.5234 30.3649 43.7075 29.2973 46.9585 28.3243C49.9151 30.0406 52.7915 31.8378 55.5742 33.7027C55.8953 31.8108 56.2164 29.9189 56.5375 28.027C53.6611 26.0135 50.7044 24.0946 47.6408 22.2433H47.6541Z" fill="white"/>
<path d="M81.053 44.9866H73.6414L71.9155 49.7028H68.999L75.5946 32.1622H79.0998L85.6954 49.7028H82.7655L81.0397 44.9866H81.053ZM80.0496 42.3109L77.3472 34.973L74.6447 42.3109H80.0496Z" fill="white"/>
<path d="M92.4915 30.4053H89.7222V49.6891H92.4915V30.4053Z" fill="white"/>
<path d="M105.468 35.7027V38.5811C105.227 38.5541 105 38.527 104.639 38.527C102.124 38.527 100.211 39.973 100.211 43.3919V49.7027H97.4546V35.9189H100.211V38.6487C101.013 36.7162 102.552 35.6216 104.666 35.6216C105 35.6216 105.268 35.6487 105.468 35.7027Z" fill="white"/>
<path d="M121.483 35.9189V49.7027H118.727V47.3919C117.75 48.973 116.145 50 114.058 50C110.486 50 107.877 47.0135 107.877 42.8108C107.877 38.6081 110.526 35.6216 114.031 35.6216C116.145 35.6216 117.75 36.7027 118.727 38.2703V35.9189H121.483ZM118.767 42.8108C118.767 40.1757 116.988 38.3243 114.66 38.3243C112.332 38.3243 110.673 40.1757 110.673 42.8108C110.673 45.446 112.345 47.2973 114.66 47.2973C116.974 47.2973 118.767 45.473 118.767 42.8108Z" fill="white"/>
<path d="M146.635 40.8514V49.7027H143.879V41.4595C143.879 39.4054 143.076 38.3243 141.23 38.3243C139.062 38.3243 137.952 40.0541 137.952 42.5541L137.979 49.6892H135.209V41.446C135.209 39.3919 134.407 38.3108 132.56 38.3108C130.393 38.3108 129.296 40.0405 129.296 42.5405V49.6757H126.54V35.8919H129.296V38.0946C130.219 36.5135 131.53 35.5946 133.457 35.5946C135.504 35.5946 136.935 36.6216 137.591 38.473C138.487 36.6892 139.999 35.5946 142.113 35.5946C144.935 35.5946 146.635 37.5541 146.635 40.8243V40.8514Z" fill="white"/>
<path d="M162.769 47.0135V49.7027H151.478V47.0135L159.117 38.5946H151.919V35.9189H162.649V38.5946L154.983 47.0135H162.769Z" fill="white"/>
<path d="M73.1869 3.62164C74.2304 3.62164 74.819 2.98651 74.819 1.83786C74.819 0.689212 74.2304 0.0540771 73.1869 0.0540771C72.1433 0.0540771 71.5547 0.689212 71.5547 1.85137C71.5547 3.01354 72.13 3.63516 73.1869 3.63516V3.62164Z" fill="white"/>
<path d="M153.217 16.2838H145.203C144.507 16.2838 143.972 16.0811 143.544 15.6757C143.129 15.2703 142.929 14.7432 142.929 14.0405V5.47297H140.173V18.9189C140.173 19.9189 139.959 20.7162 139.557 21.3108C139.169 21.8784 138.647 22.1622 137.992 22.1622H137.31V24.8378H138.032C139.584 24.8378 140.815 24.2838 141.658 23.1892C142.5 22.1216 142.915 20.6351 142.915 18.7838V18.0676C143.37 18.527 143.999 18.8378 144.788 18.9054C145.056 18.9324 145.604 18.9595 145.872 18.9595H156.066V0H153.19V16.2838H153.217Z" fill="white"/>
<path d="M162.769 0H159.893V18.9595H162.769V0Z" fill="white"/>
<path d="M128.935 5.20278C127.049 5.20278 125.497 5.90549 124.333 7.31089C123.169 8.68927 122.581 10.4866 122.581 12.6352C122.581 14.1082 122.808 15.3244 123.25 16.2839H76.8797C76.184 16.2839 75.6489 16.0812 75.2342 15.6758C74.8194 15.2704 74.6188 14.7433 74.6188 14.0406V5.47305H71.8628V18.919C71.8628 19.919 71.6487 20.7163 71.2474 21.3109C70.8594 21.8785 70.3377 22.1622 69.6821 22.1622H69.0132V24.8379H69.7356C71.2875 24.8379 72.505 24.2839 73.3612 23.1893C74.204 22.1217 74.6188 20.6352 74.6188 18.7839V18.0541C75.0736 18.5136 75.7024 18.8244 76.4918 18.892C76.7593 18.919 77.3078 18.946 77.5754 18.946H127.905C129.966 18.946 131.705 18.3109 133.056 17.0676C134.421 15.8109 135.116 14.0812 135.116 11.892C135.116 9.70278 134.541 8.16224 133.404 6.97305C132.267 5.78386 130.768 5.18927 128.949 5.18927M131.022 15.0541C130.233 15.8649 129.19 16.2839 127.905 16.2839H126.233C125.725 15.4866 125.47 14.2568 125.47 12.6352C125.47 11.1622 125.805 9.98657 126.474 9.1217C127.129 8.27035 127.945 7.86495 128.949 7.86495C129.952 7.86495 130.715 8.2163 131.303 8.93251C131.905 9.64873 132.213 10.6487 132.213 11.892C132.213 13.2028 131.825 14.2298 131.022 15.0541Z" fill="white"/>
</g>
<defs>
<clipPath id="clip0_66_28522">
<rect width="162" height="50" fill="white"/>
</clipPath>
</defs>
</svg>
